<svg xmlns="http://www.w3.org/2000/svg" viewBox="0 0 529.34 94.96">
  <path fill="#00acec" d="M450.07 33.68L436.7 75.75a1.23 1.23 0 0 1-1.19.75h-6.65a1 1 0 0 1-1.06-.75l-10.1-30.29-10.21 30.29a1.08 1.08 0 0 1-1.07.75h-6.65a1.1 1.1 0 0 1-1.13-.75l-13.29-42.07c-.25-.63.06-1.07.75-1.07h7a1 1 0 0 1 1.07.75l9.09 31.86 10.22-31.86a.88.88 0 0 1 .51-.62 1.05 1.05 0 0 1 .5-.13h6.39a1.17 1.17 0 0 1 .57.13 1.23 1.23 0 0 1 .44.62l10.22 31.86 9.22-31.86a1 1 0 0 1 1.07-.75h7c.61-.01.86.43.67 1.07zM453.84 35.36a4.55 4.55 0 1 1 4.58 4.58 4.57 4.57 0 0 1-4.58-4.58zm1.38 10.41h6.4a.89.89 0 0 1 .94.94v28.85a.89.89 0 0 1-.94.94h-6.4a.89.89 0 0 1-.94-.94V46.68a.89.89 0 0 1 .94-.91zM493.29 33.54v5.71a.89.89 0 0 1-.94.94h-14.87v9.91h14.05a.88.88 0 0 1 .94.94v5.7a.88.88 0 0 1-.94.94h-14.05v17.88a.89.89 0 0 1-.94.94h-6.71a.89.89 0 0 1-.94-.94v-42a.89.89 0 0 1 .94-.94h22.52a.89.89 0 0 1 .94.92zM498.94 35.36a4.55 4.55 0 1 1 4.57 4.58 4.56 4.56 0 0 1-4.57-4.58zm1.37 10.41h6.39a.89.89 0 0 1 1 .91v28.88a.89.89 0 0 1-.94.94h-6.4a.89.89 0 0 1-.94-.94V46.68a.89.89 0 0 1 .89-.91z"/>
  <path fill="#252324" d="M164.77 74.34l-.55-4.66a1.26 1.26 0 0 0-.45-.94 1.44 1.44 0 0 0-1.08-.17l-1.07.12c-.43 0-.8.06-1.12.06-.53 0-1.21-.08-1.45-.44a3.56 3.56 0 0 1-.36-1.92V32.68a1.37 1.37 0 0 0-.53-1.25 2.26 2.26 0 0 0-1.23-.28h-6.16a2.87 2.87 0 0 0-1.18.19c-.59.27-.59 1.12-.59 1.4v35.51a14.66 14.66 0 0 0 .53 4.26 6.55 6.55 0 0 0 1.59 2.77 5.87 5.87 0 0 0 2.58 1.45 12.64 12.64 0 0 0 3.35.41 30.21 30.21 0 0 0 3.29-.21 13.44 13.44 0 0 0 3.26-.74 2.92 2.92 0 0 0 1-.63 1.4 1.4 0 0 0 .16-1.22M286.13 58.52v16.42a1.44 1.44 0 0 0 .49 1.24 2.08 2.08 0 0 0 1.22.29h6.28a1.89 1.89 0 0 0 1.37-.34 1.64 1.64 0 0 0 .34-1.19V59.07a24.29 24.29 0 0 0-1-7.47"/>
  <path fill="#252324" d="M294.81 51.6a11.79 11.79 0 0 0-3.11-5.05 12.81 12.81 0 0 0-5.3-2.8 28.36 28.36 0 0 0-7.46-.87c-.62 0-1.34 0-2.18.06s-1.67.09-2.53.16l-2.4.18a14.72 14.72 0 0 0-1.78.22 4.81 4.81 0 0 0-3.35 1.87 6.62 6.62 0 0 0-.79 3.48v26.09a1.41 1.41 0 0 0 .49 1.24 2.09 2.09 0 0 0 1.23.29h6.26a1.89 1.89 0 0 0 1.37-.34 1.58 1.58 0 0 0 .34-1.19V51.29a14.44 14.44 0 0 1 2-.2h1.72a10.69 10.69 0 0 1 3.41.46 4.45 4.45 0 0 1 1.97 1.32 5.54 5.54 0 0 1 1.07 2.28 15.74 15.74 0 0 1 .32 3.37M348.28 43.62a1.25 1.25 0 0 0-1.08-.66 20.79 20.79 0 0 0-7.85.49 31.61 31.61 0 0 0-4.1 1.32v-.55a1.13 1.13 0 0 0-.94-1l-6.06-1.81a1.46 1.46 0 0 0-1.23.19 1.56 1.56 0 0 0-.52 1.33v32.01a1.44 1.44 0 0 0 .49 1.24 2.09 2.09 0 0 0 1.23.29h6.2a2.3 2.3 0 0 0 1.36-.27 1.48 1.48 0 0 0 .42-1.26V54.1a15.37 15.37 0 0 1 1.8-1.15 11.6 11.6 0 0 1 4.11-1.3 16.86 16.86 0 0 1 4.13.09 3.62 3.62 0 0 0 1.26-.06c.59-.18.62-1 .63-1.19l.34-6a2.32 2.32 0 0 0-.19-.87M124.04 56.88a7.57 7.57 0 0 1 1.83-4.5 5.23 5.23 0 0 1 4.07-1.76 6.23 6.23 0 0 1 2.68.49 4.28 4.28 0 0 1 1.64 1.3 5.44 5.44 0 0 1 .88 2 10.92 10.92 0 0 1 .27 2.49zm19 4.82c.91-.87 1.36-2.38 1.36-4.64 0-4.52-1.24-8-3.69-10.49s-6.14-3.69-11-3.69a16.89 16.89 0 0 0-6.4 1.16 13.11 13.11 0 0 0-4.9 3.43 15.37 15.37 0 0 0-3.13 5.47 22.69 22.69 0 0 0-1.09 7.28c0 5.81 1.33 10.13 4 12.84s6.7 4.08 12.11 4.08a27.11 27.11 0 0 0 5.62-.65 15.92 15.92 0 0 0 5.37-2.15 2.08 2.08 0 0 0 .8-.79 1.44 1.44 0 0 0-.08-1.22l-2-4.4a1.43 1.43 0 0 0-.77-.8 2.1 2.1 0 0 0-1.31.17 21.42 21.42 0 0 1-3.34 1.07 14.08 14.08 0 0 1-6.21.12 5 5 0 0 1-3.53-2.92 7.63 7.63 0 0 1-.58-2.6h15.11a5.08 5.08 0 0 0 3.69-1.29M176.19 56.88a7.57 7.57 0 0 1 1.83-4.5 5.23 5.23 0 0 1 4.07-1.76 6.23 6.23 0 0 1 2.68.49 4.35 4.35 0 0 1 1.64 1.3 5.44 5.44 0 0 1 .88 2 10.92 10.92 0 0 1 .27 2.49zm19 4.82c.91-.87 1.36-2.38 1.36-4.64 0-4.52-1.24-8-3.69-10.49s-6.14-3.69-11-3.69a16.89 16.89 0 0 0-6.4 1.16 13.11 13.11 0 0 0-4.9 3.43 15.37 15.37 0 0 0-3.13 5.47 22.69 22.69 0 0 0-1.09 7.28c0 5.81 1.33 10.13 4 12.84s6.7 4.08 12.11 4.08a27.11 27.11 0 0 0 5.62-.65 15.92 15.92 0 0 0 5.37-2.15 2.08 2.08 0 0 0 .8-.79 1.44 1.44 0 0 0-.08-1.22l-2-4.4a1.43 1.43 0 0 0-.77-.8 2.09 2.09 0 0 0-1.31.17 21.42 21.42 0 0 1-3.34 1.07 14.08 14.08 0 0 1-6.21.12 5 5 0 0 1-3.53-2.92 7.63 7.63 0 0 1-.58-2.6h15.11a5.08 5.08 0 0 0 3.69-1.29M241.13 56.88a7.56 7.56 0 0 1 1.82-4.5 5.25 5.25 0 0 1 4.08-1.76 6.21 6.21 0 0 1 2.67.49 4.2 4.2 0 0 1 1.64 1.3 5.27 5.27 0 0 1 .88 2 10.38 10.38 0 0 1 .28 2.49zm19 4.82c.91-.87 1.35-2.38 1.35-4.64 0-4.52-1.24-8-3.68-10.49s-6.14-3.69-11-3.69a16.8 16.8 0 0 0-6.39 1.16 13.23 13.23 0 0 0-4.91 3.43 15.52 15.52 0 0 0-3.13 5.47 22.7 22.7 0 0 0-1.08 7.28c0 5.81 1.33 10.13 3.95 12.84s6.7 4.08 12.11 4.08a27.2 27.2 0 0 0 5.63-.65 15.92 15.92 0 0 0 5.37-2.15 2.23 2.23 0 0 0 .8-.79 1.41 1.41 0 0 0-.09-1.22l-1.95-4.4a1.43 1.43 0 0 0-.77-.8 2.12 2.12 0 0 0-1.32.17 21.64 21.64 0 0 1-3.32 1.07 14.13 14.13 0 0 1-6.22.12 5.2 5.2 0 0 1-2.1-1 5.07 5.07 0 0 1-1.42-1.91 7.4 7.4 0 0 1-.58-2.6h15.1a5.1 5.1 0 0 0 3.68-1.3M370.27 63.68a9 9 0 0 1-1.09 2.89 5.32 5.32 0 0 1-4.84 2.64 5.06 5.06 0 0 1-4.71-2.37 13.62 13.62 0 0 1-1.43-6.93 12.43 12.43 0 0 1 1.55-6.66 5.26 5.26 0 0 1 4.78-2.46 5.38 5.38 0 0 1 2.85.7 5.57 5.57 0 0 1 1.89 1.91 8.75 8.75 0 0 1 1 2.92 21.83 21.83 0 0 1 .3 3.77 18.27 18.27 0 0 1-.33 3.59m6-16.25c-2.65-3-6.64-4.56-11.86-4.56a17.34 17.34 0 0 0-6.58 1.19 13.92 13.92 0 0 0-5 3.39 14.89 14.89 0 0 0-3.1 5.43 22.28 22.28 0 0 0-1.09 7.16c0 5.35 1.26 9.58 3.75 12.56s6.51 4.54 11.89 4.54 9.38-1.52 12-4.53 3.94-7.26 3.94-12.69c0-5.27-1.34-9.47-4-12.48M116.01 33.4a1.76 1.76 0 0 0-1.28-.37H83.6a1.67 1.67 0 0 0-1.22.37 1.85 1.85 0 0 0-.38 1.35v5.41a1.49 1.49 0 0 0 1.6 1.66h13.65l-3.33 2.41v30.52a1.65 1.65 0 0 0 .5 1.35 2 2 0 0 0 1.34.37h6.5a2.24 2.24 0 0 0 1.48-.35 1.74 1.74 0 0 0 .43-1.37V41.82h10.53a1.52 1.52 0 0 0 1.66-1.66v-5.41a1.85 1.85 0 0 0-.38-1.35M323.18 74.41l-.73-5a1.15 1.15 0 0 0-1.53-1l-1 .12-1.24.12-1.25.12q-.58.06-1 .06a4 4 0 0 1-2.38-.58 2.52 2.52 0 0 1-.71-2.09v-15.1h6.25c.25 0 1 0 1.25-.54a2.65 2.65 0 0 0 .16-1.06v-4.31a2 2 0 0 0-.2-1c-.28-.5-1-.5-1.21-.5h-6.25v-7.7a1.56 1.56 0 0 0-.51-1.33 1.31 1.31 0 0 0-.8-.25 2.32 2.32 0 0 0-.48.06l-5.57 1.82a2.76 2.76 0 0 0-1.19.59 1.9 1.9 0 0 0-.53 1.32l-.41 5.39-4.2 1a1.36 1.36 0 0 0-1.29 1.64v3.28a2.25 2.25 0 0 0 .23 1 1.31 1.31 0 0 0 1.24.56h7.12l-3.3 2.39v14.5c0 3 .8 5.29 2.38 6.84s4.19 2.35 7.78 2.35c1.06 0 2.36-.06 3.87-.18a23.52 23.52 0 0 0 4.61-.87c.26-.09 1-.35 1-.93a6 6 0 0 0-.06-.75"/>
  <path fill="#6cbaeb" d="M66.53 38.26l-48-30.36C10.25 2.68 0 9.38 0 20.07v60.9c0 10.7 10.28 17.43 18.57 12.15l48-30.55c8.4-5.35 8.39-18.98-.04-24.31zm-17.36 6.11h-12.7v32a3.13 3.13 0 0 1-3 2.58H22.56a2.17 2.17 0 0 1-2.18-2.58l-.06-27.61 6-4.42H5.94a2.14 2.14 0 0 1-2.15-2.58v-6.74c.24-1.42 1.59-2.57 3.89-2.57h42.34a2.13 2.13 0 0 1 2.15 2.57v6.74a3.17 3.17 0 0 1-3 2.61z"/>
  <path fill="#252324" d="M217.81 68.99a19.75 19.75 0 0 0 7.18-1.44 1.88 1.88 0 0 1 1.11-.23c.22.07.39.34.54.81l1.74 4.67a1.66 1.66 0 0 1 .3 1c0 .27-.28.52-.73.75a23.92 23.92 0 0 1-11.58 2.56q-7.38 0-11.21-4.29t-3.82-12.75q0-8 4.2-12.68t11.38-4.64a21.45 21.45 0 0 1 9.9 2.14c.53.24.83.46.9.67a1.69 1.69 0 0 1-.23 1.07l-1.74 4.82q-.3.67-.69.75a2.85 2.85 0 0 1-1.26-.2 20.9 20.9 0 0 0-6.17-1.13 5.73 5.73 0 0 0-5.17 2.58 11.93 11.93 0 0 0-1.68 6.62 11.58 11.58 0 0 0 1.58 6.61c1.05 1.53 2.86 2.31 5.45 2.31z"/>
  <path fill="#00acec" d="M493.88 24.62c-.12.11-.22.23-.34.34l4.7 5.22.39-.38c2.75-2.48 6.53-2.68 9.84.14l5.39-4.85c-5.61-5.15-13.82-6.02-19.98-.47zM517.29 21.99l5.24-4.73zM479.35 9.23l4.23 4.69c11.69-10.41 27.72-11.24 41.79.76l4-3.59a35.88 35.88 0 0 0-50.02-1.86z"/>
  <path fill="#00acec" d="M486.18 16.8l4.18 4.64c8.36-7.44 19.39-6.32 26.93.55l5.24-4.72c-12.19-10.36-26.14-9.59-36.35-.47z"/>
</svg>